<svg xmlns="http://www.w3.org/2000/svg"  viewBox="0 0 30 30" width="40px" height="40px"><path fill="#8bb7f0" d="M15,25.5c-3.144,0-6.096-1.392-8.1-3.818L6.75,21.5H4c-1.93,0-3.5-1.57-3.5-3.5v-6 c0-1.93,1.57-3.5,3.5-3.5h2.75L6.9,8.318C8.904,5.892,11.856,4.5,15,4.5s6.096,1.392,8.1,3.818L23.25,8.5H26 c1.93,0,3.5,1.57,3.5,3.5v6c0,1.93-1.57,3.5-3.5,3.5h-2.75l-0.15,0.182C21.096,24.108,18.144,25.5,15,25.5z"/><path fill="#4e7ab5" d="M15,5c2.994,0,5.806,1.326,7.714,3.637L23.014,9h0.471H26c1.654,0,3,1.346,3,3v6 c0,1.654-1.346,3-3,3h-2.515h-0.471l-0.3,0.363C20.806,23.674,17.994,25,15,25s-5.806-1.326-7.714-3.637L6.986,21H6.515H4 c-1.654,0-3-1.346-3-3v-6c0-1.654,1.346-3,3-3h2.515h0.471l0.3-0.363C9.194,6.326,12.006,5,15,5 M15,4 c-3.416,0-6.468,1.557-8.485,4H4c-2.209,0-4,1.791-4,4v6c0,2.209,1.791,4,4,4h2.515c2.018,2.443,5.07,4,8.485,4 s6.468-1.557,8.485-4H26c2.209,0,4-1.791,4-4v-6c0-2.209-1.791-4-4-4h-2.515C21.468,5.557,18.416,4,15,4L15,4z"/><path fill="#fff" d="M8.961 18.767L7.267 18.767 6.524 14.388 5.798 18.767 4.122 18.767 2.532 11.66 4.433 11.66 4.986 15.816 5.712 11.66 7.388 11.66 8.097 15.816 8.667 11.642 10.533 11.642zM12.201 11.234A.993.918 0 1 0 12.201 13.069999999999999.993.918 0 1 0 12.201 11.234zM11.328 13.591H13.038V18.73H11.328zM29 18c0 1.654-1.346 3-3 3H14.469C15.42 19.938 16 18.535 16 17v-4c0-2.206 1.794-4 4-4h6c1.654 0 3 1.346 3 3V18z"/><path fill="#8bb7f0" d="M24.74 13.609H26.450999999999997V18.748H24.74zM25.612 11.252A.993.918 0 1 0 25.612 13.088.993.918 0 1 0 25.612 11.252zM18 11.679L23.685 11.679 23.685 13.348 19.831 13.348 19.831 14.926 23.305 14.926 23.305 16.577 19.831 16.577 19.831 18.73 18 18.73z"/></svg>